<?xml version="1.0" encoding="UTF-8" standalone="no"?>
<!-- Created with Inkscape (http://www.inkscape.org/) -->
<svg xmlns:dc="http://purl.org/dc/elements/1.1/" xmlns:cc="http://creativecommons.org/ns#" xmlns:rdf="http://www.w3.org/1999/02/22-rdf-syntax-ns#" xmlns:svg="http://www.w3.org/2000/svg" xmlns="http://www.w3.org/2000/svg" xmlns:sodipodi="http://sodipodi.sourceforge.net/DTD/sodipodi-0.dtd" xmlns:inkscape="http://www.inkscape.org/namespaces/inkscape" width="512" height="201.978" viewBox="0 0 135.46666 53.440012" version="1.1" id="svg1077" inkscape:version="0.92.4 (5da689c313, 2019-01-14)" sodipodi:docname="llk_data_repo.svg">
  <defs id="defs1071"/>
  <sodipodi:namedview id="base" pagecolor="#ffffff" bordercolor="#666666" borderopacity="1.0" inkscape:pageopacity="0.0" inkscape:pageshadow="2" inkscape:zoom="0.98994949" inkscape:cx="226.50961" inkscape:cy="75.781079" inkscape:document-units="mm" inkscape:current-layer="layer1" showgrid="false" units="px" inkscape:window-width="1360" inkscape:window-height="706" inkscape:window-x="0" inkscape:window-y="32" inkscape:window-maximized="1"/>
  <metadata id="metadata1074">
    <rdf:RDF>
      <cc:Work rdf:about="">
        <dc:format>image/svg+xml</dc:format>
        <dc:type rdf:resource="http://purl.org/dc/dcmitype/StillImage"/>
        <dc:title/>
      </cc:Work>
    </rdf:RDF>
  </metadata>
  <g inkscape:label="Layer 1" inkscape:groupmode="layer" id="layer1" transform="translate(0,-243.55997)">
    <g transform="matrix(0.97062153,0,0,0.97062153,-18.779659,101.23873)" id="g1069">
      <circle r="27.528759" cy="174.15773" cx="46.876911" id="path1007" style="opacity:1;fill:#4e73df;fill-opacity:0.99576272;stroke:none;stroke-width:1;stroke-miterlimit:4;stroke-dasharray:none;stroke-opacity:1"/>
      <g data-name="Layer 2" id="g995" transform="matrix(0.26458333,0,0,0.26458333,24.290211,151.57158)">
        <g data-name="Layer 1" id="g993">
          <path id="path888" d="m 85.32,0 -6.17,0.12 c -2.56,0.11 -3.91,1.05 -3.52,3.24 l 1.53,17.76 3.51,-0.32 -0.5,-8.39 4.76,-0.08 v 8.34 L 88.46,20.78 89.34,3.5 C 89.23,1.36 88,0.07 85.32,0 Z M 85,8.61 79.69,8.77 79.35,5.37 a 1.48,1.48 0 0 1 1.49,-1.53 l 2.82,-0.07 a 1.5,1.5 0 0 1 1.5,1.63 z" class="cls-1" inkscape:connector-curvature="0" style="fill:#ffffff;fill-rule:evenodd"/>
          <path id="path891" d="m 50,138.94 -5.77,9.5 a 3,3 0 0 0 1.56,3.74 l 4.49,2.25 -1.41,3.09 a 1.8,1.8 0 0 1 -2.3,0.14 l -6,-3.63 -2,2.58 10.1,5.71 a 2.88,2.88 0 0 0 3,-1.43 l 7.41,-16.89 -3,-1.44 -3.87,8.67 -3.31,-1.37 c -1,-0.68 -1.18,-1 -0.49,-2.15 l 4.07,-7.07 z" class="cls-1" inkscape:connector-curvature="0" style="fill:#ffffff;fill-rule:evenodd"/>
          <polygon id="polygon893" points="42.91,139.58 33.6,152.73 30.24,150.26 40.68,137.52 37.7,134.96 40.7,131.74 48.61,138.21 45.95,141.7 " class="cls-1" style="fill:#ffffff;fill-rule:evenodd"/>
          <path id="path895" d="m 17.27,131.61 5.5,-3.44 c 1.44,-1.32 1.84,-2.67 1.44,-4.07 l -1.63,-2.51 a 1.88,1.88 0 0 1 0.32,-2.37 l 1.86,-0.88 a 1.74,1.74 0 0 1 2.22,0.71 l 2.36,5.12 3.07,-1.94 -3.24,-6.35 a 3.3,3.3 0 0 0 -4.41,-1.31 L 19,117.06 a 2.6,2.6 0 0 0 -0.87,3.8 l 1.57,3.63 A 1,1 0 0 1 19.36,126 l -2.07,1.23 a 1.46,1.46 0 0 1 -1.6,-0.6 l -3.75,-7.39 -3.67,1.84 4.88,9.54 a 3.49,3.49 0 0 0 4.15,1 z" class="cls-1" inkscape:connector-curvature="0" style="fill:#ffffff;fill-rule:evenodd"/>
          <path id="path897" d="m 66.92,146.91 -3.11,-1.07 c -2.42,-0.83 -3.62,0.38 -4.52,2.5 l -6.23,15.87 3.32,1.36 2.72,-8.05 4.79,1.69 -1.67,8.24 3.69,1 2.89,-16.89 c 0.69,-2.1 0.56,-3.63 -1.88,-4.65 z m -1.92,5.95 -0.39,3.14 -4.44,-1.64 1,-2.52 c 0.44,-0.9 0.79,-2 1.66,-1.72 l 1.34,0.36 a 1.87,1.87 0 0 1 0.83,2.38 z" class="cls-1" inkscape:connector-curvature="0" style="fill:#ffffff;fill-rule:evenodd"/>
          <polygon id="polygon899" points="143.27,133.23 151.58,139.21 154.07,136.08 136.76,123.45 134.47,126.45 139.25,130.11 131.53,129.89 129.32,131.92 144.68,146.69 147.19,143.94 136.09,133.48 " class="cls-1" style="fill:#ffffff;fill-rule:evenodd"/>
          <path id="path901" d="m 110.25,148.09 6,13.12 a 4.62,4.62 0 0 0 5,1.59 l 6.3,-3.16 a 2.85,2.85 0 0 0 1.08,-3.36 l -2.19,-4.55 -3.44,1.75 1,1.73 c 0.46,0.75 0.4,1.35 -0.16,1.79 l -2.84,1.77 a 1.62,1.62 0 0 1 -2.38,-0.75 l -4,-8.73 c -0.52,-1.23 -0.52,-2.12 0,-2.71 l 2,-1.54 c 0.7,-0.45 1.25,-0.35 1.61,0.29 l 1,1.55 3,-1.58 -1.47,-3 c -0.79,-1.41 -2.09,-1.88 -4.13,-1 l -5.09,2.65 a 3.26,3.26 0 0 0 -1.25,4.15 z" class="cls-1" inkscape:connector-curvature="0" style="fill:#ffffff;fill-rule:evenodd"/>
          <path id="path903" d="m 81.66,149.37 -0.44,17.15 c 0.14,2.56 1,4 2.65,4.21 h 4.59 a 4.23,4.23 0 0 0 1.84,-2.37 2.9,2.9 0 0 0 2.11,2.17 l 4,-0.5 c 1.7,-0.46 2.48,-1.67 2.47,-3.55 l -2.65,-17.93 -3.3,0.53 2,15.36 a 1.66,1.66 0 0 1 -3.3,0.27 L 91.17,154.8 H 88 v 10.62 c -0.46,1.67 -2.58,1.49 -3.4,-0.17 l 0.46,-15.63 z" class="cls-1" inkscape:connector-curvature="0" style="fill:#ffffff;fill-rule:evenodd"/>
          <path id="path905" d="m 108.91,149.13 c -0.64,-2.15 -2.71,-2.63 -5.35,-2.16 l -2.09,0.6 c -2.48,0.61 -3.71,2 -3.06,4.42 l 3.35,17.27 3.72,-1.1 -2,-8.16 5.4,-1.54 2.68,8 3.48,-1 z m -6.32,7.47 -0.81,-2.93 c -0.14,-1 -0.2,-1.83 0.68,-2.07 l 1.78,-0.43 a 1.44,1.44 0 0 1 2.16,1.06 l 1,3 z" class="cls-1" inkscape:connector-curvature="0" style="fill:#ffffff;fill-rule:evenodd"/>
          <path id="path907" d="m 140.06,150.77 3.2,-3 -12,-11.81 c -2.09,-2.16 -3.56,-2.53 -5,-1.44 l -3,2.27 a 4,4 0 0 0 -0.73,6 l 9.18,14.28 3.14,-2.42 -4.89,-7 4.24,-3.4 z m -12,-6 -1.82,-2.38 c -0.45,-0.89 -0.81,-2.23 -0.06,-2.73 l 1.27,-0.89 a 1.84,1.84 0 0 1 2.38,0.64 l 2,2.31 z" class="cls-1" inkscape:connector-curvature="0" style="fill:#ffffff;fill-rule:evenodd"/>
          <path id="path909" d="m 160,126.46 2.07,-3.76 -15.54,-7.17 c -2.4,-1.08 -3.46,-0.85 -5.16,1.15 l -1.84,2.66 c -1.4,1.94 -1.19,3.9 0.82,5.07 l 14.55,10.38 1.95,-2.95 -7.14,-4.93 2.68,-4.46 z m -13.16,-1.4 -2.46,-1.57 c -0.76,-0.67 -1.47,-1.36 -1,-2.09 l 0.73,-1.15 a 1.8,1.8 0 0 1 3,-0.69 l 2.61,1.25 z" class="cls-1" inkscape:connector-curvature="0" style="fill:#ffffff;fill-rule:evenodd"/>
          <polygon id="polygon911" points="159.87,79.87 149,80.15 149.14,83.95 170.22,83.28 170.07,78.92 164.33,79.34 169.25,70.81 168.92,68.77 147.85,72.79 148.52,76.52 162.94,74.39 " class="cls-1" style="fill:#ffffff;fill-rule:evenodd"/>
          <path id="path913" d="m 145.73,30.11 -5,4.34 C 139.5,36 139.34,37.4 140,38.72 l 2.09,2.18 a 1.82,1.82 0 0 1 0.11,2.38 l -1.73,1.19 a 1.82,1.82 0 0 1 -2.37,-0.32 l -3.3,-4.63 -2.72,2.48 4.41,5.69 a 4.47,4.47 0 0 0 5.39,0.81 l 4.3,-3.31 c 1.19,-1.12 1.83,-2.83 0.61,-4.31 l -2.24,-3.31 a 0.92,0.92 0 0 1 0.08,-1.54 l 1.87,-1.57 a 1.51,1.51 0 0 1 1.73,0.31 l 4.16,5.39 3.2,-2.69 -5.49,-7.07 a 3.7,3.7 0 0 0 -4.38,-0.26 z" class="cls-1" inkscape:connector-curvature="0" style="fill:#ffffff;fill-rule:evenodd"/>
          <polygon id="polygon915" points="158.18,49.82 142.7,57.17 140.81,53.52 156.35,46.16 154.02,42.52 157.59,40.56 164.1,52.86 160.29,54.34 " class="cls-1" style="fill:#ffffff;fill-rule:evenodd"/>
          <polygon id="polygon917" points="151.52,70.62 149.31,63.41 154.22,62 156.47,69.59 160.17,68.52 157.85,61.01 162.29,59.73 164.76,68.31 168.47,67.3 164.47,54.75 144.38,60.96 147.67,71.52 " class="cls-1" style="fill:#ffffff;fill-rule:evenodd"/>
          <polygon id="polygon919" points="146.9,26.41 143.63,23.24 129.35,38.91 131.33,40.89 " class="cls-1" style="fill:#ffffff;fill-rule:evenodd"/>
          <path id="path921" d="m 115.42,5.57 -7.48,19.43 4,1.78 3.53,-8.5 1.9,1.14 a 2.24,2.24 0 0 1 0.8,2.83 l -3,6 3.44,2.17 4.25,-6.86 a 3.77,3.77 0 0 0 -0.47,-4 3.5,3.5 0 0 0 3.54,-1.52 l 3.72,-5.72 -4.65,-2.63 -2.31,4.54 a 2.77,2.77 0 0 1 -3.82,1.37 l -1.91,-1 2.92,-7 z" class="cls-1" inkscape:connector-curvature="0" style="fill:#ffffff;fill-rule:evenodd"/>
          <path id="path923" d="m 90.83,3.08 -0.44,6.4 A 3.79,3.79 0 0 0 92.91,13 l 3.06,0.16 a 1.88,1.88 0 0 1 1.77,1.62 l -0.38,2 a 1.76,1.76 0 0 1 -1.91,1.36 l -5.65,-1.08 -0.21,3.59 7.19,1.09 a 3.8,3.8 0 0 0 4,-3 L 102,13.28 A 3,3 0 0 0 99.23,10 L 95.29,9.15 c -0.76,0 -1.11,-0.43 -1,-1.15 L 94.5,5.63 A 1.47,1.47 0 0 1 95.9,4.7 l 6.86,1.06 0.47,-4 -9.12,-1.42 a 3.51,3.51 0 0 0 -3.29,2.74 z" class="cls-1" inkscape:connector-curvature="0" style="fill:#ffffff;fill-rule:evenodd"/>
          <path id="path925" d="m 41.31,15.95 3.62,5.23 a 3.92,3.92 0 0 0 4.17,1.24 l 2.51,-1.68 a 1.92,1.92 0 0 1 2.4,0.2 l 0.93,1.79 a 1.68,1.68 0 0 1 -0.66,2.19 l -5.14,2.5 2,2.91 6.37,-3.4 a 3.19,3.19 0 0 0 1.23,-4.34 L 56.12,17 A 2.67,2.67 0 0 0 52.24,16.31 L 48.6,18 a 1,1 0 0 1 -1.54,-0.28 l -1.3,-2 a 1.41,1.41 0 0 1 0.56,-1.59 l 6.38,-3.33 -1.63,-3.92 -8.85,5 a 3.35,3.35 0 0 0 -0.91,4.08 z" class="cls-1" inkscape:connector-curvature="0" style="fill:#ffffff;fill-rule:evenodd"/>
          <polygon id="polygon927" points="57.92,4.41 54,5.84 61.17,25.25 64.91,23.88 " class="cls-1" style="fill:#ffffff;fill-rule:evenodd"/>
          <polygon id="polygon929" points="68.9,5.53 72.62,21.92 68.47,22.82 64.74,6.36 60.51,7.68 59.37,3.83 73.41,0.67 74,4.63 " class="cls-1" style="fill:#ffffff;fill-rule:evenodd"/>
          <polygon id="polygon931" points="37.39,36.4 32.36,42.13 28.49,38.98 34.09,32.85 31.51,30.2 25.66,36.64 22.17,33.8 28.44,26.84 25.93,24.21 16.69,34.79 32.93,47.4 40.25,38.98 " class="cls-1" style="fill:#ffffff;fill-rule:evenodd"/>
          <polygon id="polygon933" points="7.96,49.48 6.62,52.96 25.45,60.64 26.71,57.96 " class="cls-1" style="fill:#ffffff;fill-rule:evenodd"/>
          <polygon id="polygon935" points="10.19,45.01 8.4,48.48 28.8,53.84 30.44,51.02 15.55,36.17 13.24,39.72 22.33,48.33 " class="cls-1" style="fill:#ffffff;fill-rule:evenodd"/>
          <path id="path937" d="M 0.33,79.66 0.14,84 18.4,84.17 a 3.29,3.29 0 0 0 2.31,-2.91 L 21,75.83 C 20.91,74.59 20.09,73.38 18.14,72.74 L 1.6,69.5 l -0.69,4.31 15.18,2.1 c 1.9,0.06 1.53,5.74 -0.65,4.77 z" class="cls-1" inkscape:connector-curvature="0" style="fill:#ffffff;fill-rule:evenodd"/>
          <polygon id="polygon939" points="14.21,61.41 23.96,64.83 25.03,61.69 5.93,54.51 4.62,58.29 9.97,60.14 2.33,66.12 1.87,68.02 21.82,72.45 22.84,68.52 9.13,65.21 " class="cls-1" style="fill:#ffffff;fill-rule:evenodd"/>
          <path id="path941" d="m 42.11,27.55 4.73,5.85 3.27,-2.3 -4.61,-6.21 c -0.64,-0.86 -2,-0.72 -3.06,-0.7 0.36,-0.92 1,-3 0.21,-3.95 l -2.77,-3.57 a 4,4 0 0 0 -4.61,-0.45 l -8.2,6.86 13.93,15.2 2.58,-2.5 -5.58,-6.69 1.86,-1.67 a 1.7,1.7 0 0 1 2.25,0.13 z m -3.51,-2.83 -2.22,2 -3.72,-4.17 2.42,-2.08 a 1.31,1.31 0 0 1 1.89,0 l 1.69,2.29 a 1.65,1.65 0 0 1 -0.06,1.96 z" class="cls-1" inkscape:connector-curvature="0" style="fill:#ffffff;fill-rule:evenodd"/>
          <path id="path943" d="m 139.2,19.26 -8.32,-6.11 -11.35,17.85 3,1.95 5.17,-7.42 2.2,1.21 a 1.58,1.58 0 0 1 0.55,2.16 l -4.78,6.63 2.6,2.2 5.67,-6.4 c 0.71,-0.8 0.16,-2.27 -0.09,-3.13 a 4.1,4.1 0 0 0 3.76,-0.78 l 2.4,-3.18 c 0.73,-0.96 0.52,-4.05 -0.81,-4.98 z m -3.34,2.8 -1.74,2.25 a 1.77,1.77 0 0 1 -2,0.54 l -2.5,-1.57 2.87,-4.77 2.77,1.81 a 1.23,1.23 0 0 1 0.6,1.74 z" class="cls-1" inkscape:connector-curvature="0" style="fill:#ffffff;fill-rule:evenodd"/>
          <path id="path945" d="m 8.46,116 c -8.55,2.33 -8.33,-3.92 -5.91,-4.54 1.41,-0.36 1.73,1 0.76,1.39 a 1,1 0 0 0 0.27,-0.84 0.73,0.73 0 0 0 -1.13,0 c -1.12,1.55 0.2,2.47 1.82,1.77 1.62,-0.7 4.65,-3.67 6.26,-3 0.83,0.35 0.95,0.78 1,1.89 0.05,1.11 -0.06,2.47 -3.12,3.31 z" class="cls-2" inkscape:connector-curvature="0" style="fill:none;stroke:#ffffff;stroke-width:0.25px;stroke-miterlimit:10"/>
          <path id="path947" d="m 11,101.07 c 1.32,-1.53 0.39,-4.79 -1.94,-3.08 0.25,-1.48 -1.49,-4 -3.25,-1 -0.22,-1.74 -3.88,-2.56 -3.73,0.74 -1.11,-0.32 -3.24,1.57 -0.57,2.8 -2.51,0.92 -1.32,2.12 -0.29,2.37 -1,0.93 -0.67,2.25 1,2.11 -1.62,1.94 0.29,3.1 1.48,2.45 -1.18,1.4 0.7,2.18 1.66,1.61 0.73,-1 0.25,-1.69 -0.61,-1.74 a 16.83,16.83 0 0 1 2.17,-1.68 10.71,10.71 0 0 0 2.47,-1.46 c 1.9,-1.47 0.26,-2.39 -0.3,-1.59 -0.14,0.32 0.06,0.65 0.4,0.88 -1.36,0.7 -4.15,-2.28 1.51,-2.41 z M 9,98.32 c -0.09,0.84 0.87,1.57 1.26,1.18 0.09,0.71 -1.08,1.76 -1.77,1.45 C 7.63,100.58 9.08,99.12 9,98.32 Z M 4.25,97.44 c 0.77,0.1 1.72,2.66 1.32,2.94 -0.17,0.14 -1.83,-2.27 -2.45,-2.4 0.56,0.27 1.29,-0.18 1.11,-0.54 z m -1.33,1.94 c 0.54,-0.11 2.43,1.74 2.31,2.06 -0.12,0.32 -2.33,-1.06 -3,-1.08 0.57,-0.08 0.99,-0.73 0.69,-0.98 z m -1.13,3.43 c 0.9,-0.12 1.1,-1.13 0.58,-1.33 0.72,-0.23 3.07,0.59 3,1.16 -0.08,0.15 -3.25,0.07 -3.58,0.18 z m 0.84,1.94 c 0.88,-0.2 1.26,-1 0.74,-1.11 0.68,-0.37 3.32,-0.07 2.65,0.38 -0.39,0.25 -2.94,0.55 -3.39,0.73 z m 3.64,0.53 c -0.58,0.57 -1.71,1.25 -2.26,1.87 0.7,-0.56 0.33,-1.09 -0.2,-1 -0.09,-0.76 3.27,-1.68 2.46,-0.87 z m 0.29,-4.58 c -0.26,0 -0.21,-2.28 -0.51,-3.14 0.3,0.66 1.25,0.93 1.45,0.5 a 1.78,1.78 0 0 1 -0.94,2.65 z" class="cls-1" inkscape:connector-curvature="0" style="fill:#ffffff;fill-rule:evenodd"/>
          <path id="path949" d="m 22.43,85.22 c 0.4,2.72 -1,3.81 -2.71,4.18 -2.1,0.45 -4.79,1.33 -4.29,4.72 0.43,2.87 5.74,2.59 6.36,-0.45 A 2.09,2.09 0 0 0 19.73,91.3 c -0.45,0 -1.44,0.55 -1.52,1.25 a 1.11,1.11 0 0 0 1.36,1.12 c -0.49,1.28 -2.18,0.75 -2.11,-1 0.07,-1.75 3.91,-4 4.75,-0.49 0.9,-1 0.59,-2.19 0,-2.45 1.83,-1 0.83,-3.59 0.21,-4.54 z" class="cls-1" inkscape:connector-curvature="0" style="fill:#ffffff;fill-rule:evenodd"/>
          <path id="path951" d="m 22.06,109.71 a 1.21,1.21 0 0 0 0.42,2 c -0.62,0.8 -2.13,1.11 -2.45,-0.08 1,-1.19 -0.26,-1.33 -0.93,-1.69 -0.45,0.37 -1.66,0.89 -0.76,1.78 a 1.9,1.9 0 0 1 -2.39,-2 c 0.27,-2 5.64,-2.34 6,-5.74 0.23,-1.94 -0.5,-3.12 -1.63,-4.86 C 17.73,95.17 19.55,97.17 16.95,96.47 15.43,96 14.61,95 15,92.78 c -0.87,0.6 -2.06,3.74 0.57,5.18 a 1.91,1.91 0 0 0 0.41,2.79 c -0.21,-0.18 0.26,-1 0.85,-1 a 5.19,5.19 0 0 1 2.84,0.31 3.72,3.72 0 0 1 1.78,2.71 4.36,4.36 0 0 1 -2.85,4.36 c -3.65,1.61 -4.23,-4.78 0.34,-2.7 0.39,-0.08 0.6,-0.56 0.68,-0.88 0.69,-2.67 -3.62,-3.16 -3.06,-2.18 0.68,2 -0.27,1.67 -1.65,1 -0.81,0.57 -2.11,2.73 -2.93,3.55 -1.38,-0.72 -0.29,-3.78 1.46,-4.21 -0.89,0.71 -2.11,3.46 -1.44,3.3 1.32,-1.87 2.14,-2.63 2.57,-2.8 -1.16,-0.54 -2.52,-1.18 -3.47,-0.86 l -1,0.34 c 2.7,1.36 -1.7,4.82 -3.65,5.22 0.12,1 0.44,1.18 -0.27,2.16 2.22,-1.32 2.76,-0.79 2.35,0.18 -0.32,0.73 1.42,-0.22 1.91,-0.09 2,0.51 2.7,3.7 1.54,5.54 0.52,0.18 1.65,-1.14 2.52,-1.49 3.19,-1 2.79,1 7.68,0.58 2.01,-0.16 2.46,-4.96 -0.12,-4.08 z m -10.33,-1.07 c -1.74,-0.21 -2.58,-1.79 -0.84,-2.21 0.06,0.71 1.23,0.8 1.85,0.16 0.9,-1.92 1,-1.57 1.19,-1.12 a 2.61,2.61 0 0 1 -2.2,3.18 z" class="cls-1" inkscape:connector-curvature="0" style="fill:#ffffff;fill-rule:evenodd"/>
          <path id="path953" d="m 3,114.1 c 1.13,-0.23 2.7,0.2 2.72,1.65" class="cls-3" inkscape:connector-curvature="0" style="fill:none;stroke:#ffffff;stroke-width:0.70999998px;stroke-miterlimit:10"/>
          <path id="path955" d="m 6.26,112.44 c 1.13,-0.23 2.71,0.2 2.72,1.64" class="cls-3" inkscape:connector-curvature="0" style="fill:none;stroke:#ffffff;stroke-width:0.70999998px;stroke-miterlimit:10"/>
          <path id="path957" d="m 7.68,111.53 c 1.13,-0.23 2.71,0.2 2.73,1.64" class="cls-3" inkscape:connector-curvature="0" style="fill:none;stroke:#ffffff;stroke-width:0.70999998px;stroke-miterlimit:10"/>
          <path id="path959" d="m 4.77,113.55 c 1.13,-0.23 2.7,0.2 2.72,1.65" class="cls-3" inkscape:connector-curvature="0" style="fill:none;stroke:#ffffff;stroke-width:0.70999998px;stroke-miterlimit:10"/>
          <path id="path961" d="M 33.71,72.59 C 29.41,60.08 48,58.13 45.47,52.72 c -1.38,-1.38 -3.22,-1.23 -5.5,0.43 1.28,-4.45 4.1,-5.43 20.23,-5.52 12.61,-2.2 18.14,-2.44 25.91,3.12 C 105.89,53.17 106,77 106.49,72 108.12,54.1 102.93,53.71 87.02,47 c 5,-2.56 3.76,-5 -8.91,-2.72 C 80.45,40.6 76.65,41.85 70.86,43.14 67,44 64.06,42 64.34,41.8 c 3.82,-5.75 9.63,-1.59 13.36,-5.66 5.66,2.64 8,0.06 3,-2.69 5.08,-1.13 6.88,1.34 12.3,1.55 5.19,0.32 6.62,4.2 5,6.17 -3.16,4.63 10.34,8.15 12.39,17.13 1.44,6.35 0.43,12 -1.72,18.79 0.1,9.16 1.4,13.48 -0.65,20.64 5.87,-4.37 11.65,-11.84 3.07,-10.4 0.35,-10.81 12.22,-16.62 3.07,-31.44 3.38,1.6 7.17,1.2 1.69,-5 0,-3.71 -1.43,-6.35 -4.16,-7.9 5.64,0.16 7.71,3 7.27,7.35 4.12,3.49 6.28,7.25 4.12,11.61 -3.69,7.45 0.87,6.44 2.91,0.83 a 10.82,10.82 0 0 1 -4.12,10.4 c -6.63,7.93 1.15,12.73 2.81,3.08 2.6,6.33 0.47,12.65 -8.59,19 -5.72,2.58 -14.09,12.49 -13.79,13.17 17.6,4.3 7,-7 17.45,-9.13 -1.65,13.94 10.5,7.22 6.55,-6.17 -0.85,-2.91 0.74,-6.42 1.42,-6.45 2.85,11.8 5.93,-1.68 4.18,-5.7 0.85,-2.95 0.47,-5 -1.83,-6.22 2.14,-3.81 1.84,-7.45 0.11,-10.13 -0.38,-1.14 -0.74,-2.27 -1.12,-3.4 -0.14,-2.84 1.32,-4.3 -0.44,-8.51 6.34,4.7 0.5,7.26 7.56,13.94 0.68,2.46 1,4.59 -0.16,7 l 1.51,4.57 c -3.54,5.26 0.24,4.88 -1.45,10.08 -6.45,8.5 -0.91,8.3 2.19,2.65 2.88,7.12 -3,4.32 -5.66,12.92 -4.52,14.43 -7.08,6.77 -16.28,12.13 -5.1,3 -6,8.77 -12.72,10.57 -4.75,2.26 -9.32,-3.22 -7.93,-8.6 9.68,11.15 16,-8.67 -4.29,-5.2 l -0.68,-3.69 c 9.7,1.79 15.16,-13.75 3.37,-11.29 -4.13,-1.76 -3.41,-7.66 -1,-7.42 -1,4.13 9.71,0 -3.59,-7.24 0.94,-6.8 -8.2,-5.93 -6.1,-12.58 1.89,3.39 6.12,2.89 7,5.79 1.95,6.17 5,7.82 5.32,2.77 6.67,1.62 1.89,19.1 7.39,11.56 1,1.65 1.9,1.3 1.11,8.38 0.59,0.8 6.15,-9.76 -4.4,-18.82 Q 98.26,72 92.01,73.54 c -2.43,-4.15 -4.06,-6.56 -10,-6.41 2,-5.51 -3.16,-3.89 -6.59,-2.26 -2.47,-1.16 -4.69,-0.25 -7.09,1.88 -0.57,-2.12 1.76,-4.7 5,-4.9 7.23,0.82 3.13,-2.45 9.87,-3 4.74,0.61 5.5,3.83 6.85,8 3.27,5.17 6.07,-0.39 3.94,-2.52 2.89,-0.6 6.43,4.22 6.83,6.78 0.92,5.88 2.25,9.17 4.52,11.83 0.88,-2.43 -2.7,-30.63 -24.77,-25.41 l 1,-0.14 c -7.1,3 -19,-2.07 -13.16,4.54 -4.69,4.3 -8.74,-0.89 -14.92,9.28 C 52.58,69.59 51.67,69.48 53.1,66.5 47,66 46.54,72 42.17,73.65 c 0.7,-3.63 2.13,-6.86 5.83,-8.91 2.88,-1.58 13.69,-1.55 7.07,-6.49 10.21,-1.74 10.19,-8.83 24.55,-4 2.91,-0.08 3.69,-0.84 3.84,-1.26 C 83.61,52.57 82,53.12 81,52.32 76.4,48.65 63.42,47.51 53.67,56.09 c 0.46,-4.43 -1.86,-3.73 -3.26,-2 -1.64,2 -1.77,8.65 -4.76,9.74 -1.25,-4.2 -3.92,-2.95 -5.85,2.52 -1.08,3 -4.47,2.73 -6.11,6.22 z" class="cls-1" inkscape:connector-curvature="0" style="fill:#ffffff;fill-rule:evenodd"/>
          <polygon id="polygon963" points="55.67,121.3 59.02,120.46 55.23,114.37 " class="cls-1" style="fill:#ffffff;fill-rule:evenodd"/>
          <path id="path965" d="m 81.79,70.37 c -1.65,-5.82 -8.17,-4.32 -11.84,-0.84 -0.61,0.57 -1.33,1.06 -2,1.64 -2.48,2.27 -5.31,4.71 -7.91,7.22 a 99.49,99.49 0 0 1 -9.9,8.86 C 48.77,84.43 47.31,81.5 45.92,78.67 40.45,72.15 29.76,80.93 33.04,87.74 L 35.69,92 c 2.22,3.84 4.59,8 6.64,12.29 a 121,121 0 0 1 9,25.46 16.17,16.17 0 0 0 5.31,1.88 c 4.4,0.65 8.69,-0.84 13.23,-3.66 6,-4.52 11.49,-9 17,-13.57 l 2.73,5.78 3.23,-3.46 C 89.15,101.28 85.49,85.78 81.79,70.37 Z M 61.41,127 l -0.9,-1.47 c 1.67,-1 0.43,-2.6 -0.44,-3.51 l -4.29,1.09 c 0,-0.1 -0.9,3.68 2.06,3.47 v 1.15 h -5.21 v -1.47 c 2.49,0.94 0,-15.12 0,-15.12 l 2.82,-1 c 3.7,5.32 7.46,14.38 10.38,13 0.29,0.45 0.59,0.92 0.9,1.37 z m 7.49,-3.11 -9.55,-24 a 14.26,14.26 0 0 1 -8.57,5 l -2.31,-5.18 a 15.84,15.84 0 0 0 8.64,-4.88 L 55,88.35 59.11,85.14 q 1.13,3.61 2.24,7.22 A 16.37,16.37 0 0 1 68,85.14 l 2,5.36 c -2.9,0.59 -4.71,2.71 -6.16,5.65 l 9.38,25.18 z M 80.16,115 c -0.15,-8.35 -4.21,-16.2 -7.59,-14 -3.38,2.2 0.61,11.54 6.28,14.76 a 19,19 0 0 0 -4.1,3.49 l -0.75,-1.36 2.48,-2.21 c -8.29,-6.09 -9.73,-14.49 -5.08,-17.06 4.65,-2.57 10.46,4 9.9,13.32 L 83.77,111.08 84,113 a 37,37 0 0 0 -3.84,2 z" class="cls-1" inkscape:connector-curvature="0" style="fill:#ffffff;fill-rule:evenodd"/>
          <text id="text971" transform="translate(73.31,136.24)" class="cls-4" style="font-weight:700;font-size:11.18999958px;font-family:Arial-BoldMT, Arial;fill:#ffffff">
            <tspan id="tspan967" class="cls-5" style="letter-spacing:-0.01em">195</tspan>
            <tspan id="tspan969" y="0" x="18.4">6</tspan>
          </text>
          <path id="path973" d="m 42.63,90.73 -3,-5.08 C 38.42,84.3 39.17,81.86 42.14,81.2 l 1.3,2.43 M 81.85,71 C 80,76.69 77.21,77.9 69.77,77.83 L 86.83,114.4 M 35.47,91.55 c 3.25,0 9.1,-0.09 14.72,-4.3 M 86.7,114.4 M 39.83,85.61 c 5.37,-1 7,-5.83 6.11,-7" class="cls-6" inkscape:connector-curvature="0" style="fill:none;stroke:#221f20;stroke-width:0.25px;stroke-miterlimit:10"/>
          <path id="path975" d="m 39,128.59 -2.41,-2.91 a 4,4 0 0 0 -6,-0.44 l -13.83,9.85 2.56,3 6.78,-5.22 3.6,4.13 -6.2,6.14 3.11,3.05 11.22,-12.54 c 2.05,-2.23 2.35,-3.72 1.17,-5.06 z m -4.63,3.73 -2.22,2.11 -3.15,-3.62 2.29,-1.93 c 0.87,-0.5 2.19,-0.92 2.73,-0.19 l 0.95,1.23 a 1.84,1.84 0 0 1 -0.57,2.4 z" class="cls-1" inkscape:connector-curvature="0" style="fill:#ffffff;fill-rule:evenodd"/>
          <path id="path977" d="m 162.26,115.7 c 8.55,2.33 8.33,-3.92 5.91,-4.54 -1.41,-0.36 -1.73,1 -0.76,1.39 a 1,1 0 0 1 -0.27,-0.84 0.73,0.73 0 0 1 1.13,0 c 1.12,1.55 -0.2,2.47 -1.82,1.77 -1.62,-0.7 -4.65,-3.67 -6.26,-3 -0.83,0.35 -0.95,0.78 -1,1.89 -0.05,1.11 0.06,2.47 3.12,3.31 z" class="cls-3" inkscape:connector-curvature="0" style="fill:none;stroke:#ffffff;stroke-width:0.70999998px;stroke-miterlimit:10"/>
          <path id="path979" d="m 169.22,100.25 c 2.67,-1.23 0.54,-3.12 -0.57,-2.8 0.14,-3.3 -3.51,-2.48 -3.73,-0.74 -1.77,-3 -3.5,-0.48 -3.25,1 -2.33,-1.71 -3.26,1.55 -1.94,3.08 5.64,0.13 2.86,3.11 1.52,2.42 0.34,-0.23 0.54,-0.56 0.4,-0.88 -0.56,-0.8 -2.2,0.12 -0.3,1.59 a 10.71,10.71 0 0 0 2.47,1.46 16.82,16.82 0 0 1 2.17,1.68 c -0.85,0.05 -1.34,0.73 -0.61,1.74 1,0.57 2.83,-0.21 1.66,-1.61 1.19,0.65 3.1,-0.51 1.48,-2.45 1.67,0.14 2,-1.18 1,-2.11 1.03,-0.26 2.21,-1.45 -0.3,-2.38 z m -7,0.42 c -0.68,0.31 -1.86,-0.74 -1.77,-1.45 0.38,0.39 1.34,-0.33 1.26,-1.18 -0.08,0.8 1.38,2.26 0.55,2.63 z m 6.25,-0.59 c -0.69,0 -2.91,1.29 -3,1.08 -0.09,-0.21 1.78,-2.17 2.31,-2.06 -0.29,0.25 0.13,0.9 0.73,0.98 z m -2,-2.92 c -0.19,0.36 0.55,0.81 1.14,0.54 -0.62,0.13 -2.28,2.53 -2.45,2.4 -0.38,-0.28 0.56,-2.83 1.33,-2.94 z m -3.27,0.62 c 0.2,0.44 1.15,0.16 1.45,-0.5 -0.29,0.86 -0.25,3.09 -0.51,3.14 a 1.78,1.78 0 0 1 -0.92,-2.63 z m 3.49,9.09 c -0.56,-0.62 -1.68,-1.3 -2.26,-1.87 -0.81,-0.81 2.54,0.1 2.46,0.9 -0.51,-0.12 -0.89,0.41 -0.18,0.97 z m -2,-3.13 c -0.67,-0.44 2,-0.74 2.65,-0.38 -0.53,0.11 -0.14,0.91 0.74,1.11 -0.44,-0.18 -2.99,-0.47 -3.37,-0.73 z m 0.69,-1.36 c -0.12,-0.57 2.24,-1.39 3,-1.16 -0.52,0.2 -0.33,1.2 0.58,1.33 -0.36,-0.12 -3.54,-0.04 -3.56,-0.18 z" class="cls-1" inkscape:connector-curvature="0" style="fill:#ffffff;fill-rule:evenodd"/>
          <path id="path981" d="m 148.29,84.94 c -0.4,2.72 1,3.81 2.71,4.18 2.1,0.45 4.79,1.33 4.29,4.72 -0.43,2.87 -5.74,2.59 -6.36,-0.45 A 2.09,2.09 0 0 1 151,91 c 0.45,0 1.44,0.55 1.52,1.25 a 1.11,1.11 0 0 1 -1.36,1.12 c 0.49,1.28 2.18,0.75 2.11,-1 -0.07,-1.75 -3.91,-4 -4.75,-0.49 -0.9,-1 -0.59,-2.19 0,-2.45 -1.83,-1 -0.83,-3.59 -0.21,-4.54 z" class="cls-1" inkscape:connector-curvature="0" style="fill:#ffffff;fill-rule:evenodd"/>
          <path id="path983" d="m 164.54,108.82 c -0.72,-1 -0.39,-1.18 -0.27,-2.16 -2,-0.4 -6.35,-3.86 -3.65,-5.22 l -1,-0.34 c -0.95,-0.32 -2.31,0.31 -3.47,0.86 0.44,0.17 1.25,0.93 2.57,2.8 0.67,0.16 -0.55,-2.59 -1.44,-3.3 1.75,0.43 2.84,3.48 1.46,4.21 -0.81,-0.82 -2.12,-3 -2.93,-3.55 -1.38,0.64 -2.33,1 -1.65,-1 0.56,-1 -3.75,-0.48 -3.06,2.18 0.09,0.32 0.29,0.81 0.68,0.88 4.57,-2.08 4,4.31 0.34,2.7 a 4.36,4.36 0 0 1 -2.85,-4.36 3.72,3.72 0 0 1 1.73,-2.76 5.19,5.19 0 0 1 2.84,-0.31 c 0.59,0 1.07,0.84 0.85,1 a 1.91,1.91 0 0 0 0.41,-2.79 c 2.63,-1.44 1.44,-4.58 0.57,-5.18 0.39,2.19 -0.43,3.25 -2,3.68 -2.6,0.7 -0.78,-1.3 -3.37,2.65 -1.14,1.73 -1.86,2.92 -1.63,4.86 0.4,3.4 5.77,3.74 6,5.74 a 1.9,1.9 0 0 1 -2.39,2 c 0.9,-0.89 -0.31,-1.41 -0.76,-1.78 -0.67,0.36 -1.9,0.5 -0.93,1.69 -0.32,1.2 -1.83,0.88 -2.45,0.08 a 1.21,1.21 0 0 0 0.42,-2 c -2.58,-0.88 -2.13,3.92 -0.12,4.11 4.89,0.46 4.5,-1.62 7.68,-0.58 0.87,0.34 2,1.67 2.52,1.49 -1.16,-1.84 -0.43,-5 1.54,-5.54 0.49,-0.13 2.23,0.83 1.91,0.09 -0.31,-0.97 0.23,-1.48 2.45,-0.15 z m -5.55,-0.45 a 2.61,2.61 0 0 1 -2.2,-3.18 c 0.15,-0.45 0.28,-0.8 1.19,1.12 0.62,0.65 1.79,0.56 1.85,-0.16 1.73,0.42 0.9,2.01 -0.83,2.22 z" class="cls-1" inkscape:connector-curvature="0" style="fill:#ffffff;fill-rule:evenodd"/>
          <path id="path985" d="m 167.68,113.82 c -1.13,-0.23 -2.7,0.2 -2.72,1.65" class="cls-3" inkscape:connector-curvature="0" style="fill:none;stroke:#ffffff;stroke-width:0.70999998px;stroke-miterlimit:10"/>
          <path id="path987" d="m 164.46,112.16 c -1.13,-0.23 -2.71,0.2 -2.72,1.64" class="cls-3" inkscape:connector-curvature="0" style="fill:none;stroke:#ffffff;stroke-width:0.70999998px;stroke-miterlimit:10"/>
          <path id="path989" d="m 163,111.25 c -1.13,-0.23 -2.71,0.2 -2.73,1.64" class="cls-3" inkscape:connector-curvature="0" style="fill:none;stroke:#ffffff;stroke-width:0.70999998px;stroke-miterlimit:10"/>
          <path id="path991" d="m 165.94,113.27 c -1.13,-0.23 -2.7,0.2 -2.72,1.65" class="cls-3" inkscape:connector-curvature="0" style="fill:none;stroke:#ffffff;stroke-width:0.70999998px;stroke-miterlimit:10"/>
        </g>
      </g>
      <g style="fill:#4e73df;fill-opacity:0.94117647" id="g1005" transform="matrix(1.5520323,0,0,1.5520323,-57.221359,76.187187)">
        <text id="text999" y="60.197914" x="88.257439" style="font-style:normal;font-weight:normal;font-size:10.58333302px;line-height:1.25;font-family:sans-serif;letter-spacing:0px;word-spacing:0px;fill:#4e73df;fill-opacity:0.94117647;stroke:none;stroke-width:0.26458332" xml:space="preserve"><tspan style="font-style:normal;font-variant:normal;font-weight:normal;font-stretch:normal;font-family:Futura;-inkscape-font-specification:Futura;fill:#4e73df;fill-opacity:0.94117647;stroke-width:0.26458332" y="60.197914" x="88.257439" id="tspan997" sodipodi:role="line">LLK DATA</tspan></text>
        <text xml:space="preserve" style="font-style:normal;font-weight:normal;font-size:9.06690407px;line-height:1.25;font-family:sans-serif;letter-spacing:0px;word-spacing:0px;fill:#4e73df;fill-opacity:0.94117647;stroke:none;stroke-width:0.22667259" x="88.354691" y="71.70887" id="text1003"><tspan sodipodi:role="line" id="tspan1001" x="88.354691" y="71.70887" style="font-style:normal;font-variant:normal;font-weight:normal;font-stretch:normal;font-family:Futura;-inkscape-font-specification:Futura;fill:#4e73df;fill-opacity:0.94117647;stroke-width:0.22667259">Repository</tspan></text>
      </g>
    </g>
  </g>
</svg>